<?xml version="1.0" encoding="UTF-8" standalone="no"?>
<svg
   xmlns:dc="http://purl.org/dc/elements/1.1/"
   xmlns:cc="http://creativecommons.org/ns#"
   xmlns:rdf="http://www.w3.org/1999/02/22-rdf-syntax-ns#"
   xmlns:svg="http://www.w3.org/2000/svg"
   xmlns="http://www.w3.org/2000/svg"
   xmlns:sodipodi="http://sodipodi.sourceforge.net/DTD/sodipodi-0.dtd"
   xmlns:inkscape="http://www.inkscape.org/namespaces/inkscape"
   version="1.0"
   width="200.000000pt"
   height="200.000000pt"
   viewBox="0 0 200.000000 200.000000"
   preserveAspectRatio="xMidYMid meet"
   id="svg6"
   sodipodi:docname="moodle.svg"
   inkscape:version="0.92.4 (5da689c313, 2019-01-14)">
  <metadata
     id="metadata12">
    <rdf:RDF>
      <cc:Work
         rdf:about="">
        <dc:format>image/svg+xml</dc:format>
        <dc:type
           rdf:resource="http://purl.org/dc/dcmitype/StillImage" />
      </cc:Work>
    </rdf:RDF>
  </metadata>
  <defs
     id="defs10" />
  <sodipodi:namedview
     pagecolor="#ffffff"
     bordercolor="#666666"
     borderopacity="1"
     objecttolerance="10"
     gridtolerance="10"
     guidetolerance="10"
     inkscape:pageopacity="0"
     inkscape:pageshadow="2"
     inkscape:window-width="640"
     inkscape:window-height="480"
     id="namedview8"
     showgrid="false"
     inkscape:zoom="0.885"
     inkscape:cx="133.33333"
     inkscape:cy="133.33333"
     inkscape:window-x="0"
     inkscape:window-y="0"
     inkscape:window-maximized="0"
     inkscape:current-layer="g4" />
  <g
     transform="matrix(0.10603762,0,0,-0.1058278,4.0846398,96.328483)"
     id="g4"
     style="fill:#000000;stroke:none">
    <path
       d="m 1022.0477,676 c 0,-3 -46.99998,-44 -104.99998,-92 -58,-48 -105,-90 -105,-94 0,-4 13,-34 30,-66 16,-32 30,-69 30,-82 0,-16 -40,-69 -121,-162 l -122,-138 -51,13 c -292,69 -287,68 -296,91 -5,12 -12,50 -16,83 l -7,61 h -76 -76 V -92 -475 l -37.000003,-3 -38,-3 v 385 385 l -37.9999999,3 c -36.0000001,3 -31.0000001,7 192.0000029,156 l 229,154 291,38 c 340.99998,44 315.99998,41 315.99998,36 z m 482,-326 c 129,-40 238,-149 278,-278 18,-58 20,-93 20,-383 v -319 h -115 -115 v 308 c 0,276 -2,311 -19,347 -66,145 -271,151 -345,10 -20,-38 -21,-58 -24,-352 l -3,-313 h -115 -113.99998 v 308 c 0,358 1,355 -93,411 l -56,33 72,84 c 68,79 74,83 107,79 18.99998,-2 46.99998,-14 62.99998,-25 l 28,-21 35,30 c 105,93 258,124 396,81 z M 458.04772,-6 l 114,-36 v -294 -294 h -113 -114 l -6,217 c -9,271 -9,443 -1,443 3,0 57,-16 120,-36 z"
       id="path2"
       inkscape:connector-curvature="0" />
  </g>
</svg>
